<svg id="Layer_1" data-name="Layer 1" xmlns="http://www.w3.org/2000/svg" viewBox="0 0 327.57 332.86"><defs><style>.cls-1{fill:#ededee;}.cls-2{fill:#c3c3c9;}.cls-3{fill:#3f4c4c;}.cls-4{fill:#898986;}</style></defs><title>chain</title><path class="cls-1" d="M194.76,162.46a34.69,34.69,0,1,0-65.92,0c12.29,37.85,12.29,41.82,0,79.66a34.69,34.69,0,1,0,65.92,0C182.47,204.28,182.47,200.31,194.76,162.46Z"/><path class="cls-2" d="M194.76,162.46a34.68,34.68,0,0,0-38.92-45,34.69,34.69,0,0,1,27,45c-12.29,37.85-12.29,41.82,0,79.66a34.69,34.69,0,0,1-27,45,34.69,34.69,0,0,0,38.92-45C182.47,204.28,182.47,200.31,194.76,162.46Z"/><path class="cls-3" d="M161.8,290.92a38,38,0,0,1-36.07-49.82c12.14-37.36,12.14-40.26,0-77.63a38,38,0,1,1,72.15,0c-12.14,37.37-12.14,40.27,0,77.64A38,38,0,0,1,161.8,290.92Zm0-170.71A31.42,31.42,0,0,0,132,161.44c12.53,38.56,12.53,43.14,0,81.7a31.42,31.42,0,1,0,59.7,0c-12.53-38.56-12.53-43.14,0-81.7h0A31.42,31.42,0,0,0,161.8,120.21Z"/><circle class="cls-4" cx="161.8" cy="151.63" r="13.42"/><circle class="cls-4" cx="161.8" cy="252.95" r="13.42"/><path class="cls-3" d="M161.8,168.32a16.69,16.69,0,1,1,16.69-16.69A16.71,16.71,0,0,1,161.8,168.32Zm0-26.83a10.14,10.14,0,1,0,10.14,10.14A10.15,10.15,0,0,0,161.8,141.49Z"/><path class="cls-3" d="M161.8,269.64A16.69,16.69,0,1,1,178.49,253,16.71,16.71,0,0,1,161.8,269.64Zm0-26.83A10.14,10.14,0,1,0,171.94,253,10.15,10.15,0,0,0,161.8,242.81Z"/><path class="cls-1" d="M67,235.71a34.69,34.69,0,1,1,33.28-56.9c26.46,29.72,29.89,31.73,68.76,40.22a34.69,34.69,0,1,1-33.28,56.9C109.35,246.21,105.92,244.2,67,235.71Z"/><path class="cls-2" d="M67,235.71a34.68,34.68,0,0,1-19.19-56.32,34.69,34.69,0,0,0,25.21,46c38.88,8.5,42.3,10.5,68.76,40.22a34.69,34.69,0,0,0,52.48-.58,34.69,34.69,0,0,1-58.5,10.88C109.35,246.21,105.92,244.2,67,235.71Z"/><path class="cls-3" d="M161.73,290.91a37.94,37.94,0,0,1-28.38-12.81c-26.12-29.34-28.62-30.8-67-39.19a38,38,0,1,1,36.43-62.27c26.12,29.34,28.62,30.8,67,39.19A38,38,0,0,1,161.73,290.91ZM74.39,170.36a31.6,31.6,0,0,0-8,1,31.42,31.42,0,0,0,1.35,61.11h0c39.6,8.66,43.56,11,70.51,41.24a31.42,31.42,0,1,0,30.15-51.52c-39.61-8.66-43.57-11-70.52-41.25A31.48,31.48,0,0,0,74.39,170.36Z"/><circle class="cls-4" cx="74.34" cy="201.79" r="13.42" transform="translate(-137.38 164.07) rotate(-59.67)"/><circle class="cls-4" cx="161.8" cy="252.95" r="13.42" transform="translate(-138.23 264.89) rotate(-59.67)"/><path class="cls-3" d="M74.31,218.49a16.7,16.7,0,0,1-14.38-25.12h0A16.68,16.68,0,1,1,74.31,218.49Zm-8.73-21.82A10.14,10.14,0,1,0,79.46,193a10.15,10.15,0,0,0-13.87,3.63h0Z"/><path class="cls-3" d="M161.77,269.65a16.74,16.74,0,1,1,4.26-.55A16.79,16.79,0,0,1,161.77,269.65Zm0-26.84a10.2,10.2,0,0,0-2.59.33,10.08,10.08,0,0,0-6.18,4.69h0A10.13,10.13,0,1,0,161.81,242.8Zm-11.6,3.37h0Z"/><path class="cls-1" d="M249.1,110.87a34.69,34.69,0,1,0-46.61-46.61c-18.07,35.45-20.88,38.26-56.33,56.33a34.69,34.69,0,1,0,46.61,46.61C210.84,131.74,213.64,128.94,249.1,110.87Z"/><path class="cls-2" d="M249.1,110.87a34.68,34.68,0,0,0,4.3-59.35,34.69,34.69,0,0,1-12.73,50.91c-35.45,18.07-38.26,20.88-56.33,56.33a34.69,34.69,0,0,1-50.91,12.73,34.69,34.69,0,0,0,59.35-4.3C210.84,131.74,213.64,128.94,249.1,110.87Z"/><path class="cls-3" d="M161.8,189.52a38,38,0,0,1-17.13-71.86c35-17.83,37.05-19.89,54.89-54.89a38,38,0,1,1,51,51c-35,17.84-37.06,19.89-54.9,54.9A38,38,0,0,1,161.8,189.52Zm71.65-141a31.39,31.39,0,0,0-28,17.23C187,101.86,183.76,105.1,147.64,123.5a31.42,31.42,0,1,0,42.2,42.22c18.41-36.13,21.65-39.37,57.77-57.77h0A31.41,31.41,0,0,0,233.45,48.5Z"/><circle class="cls-4" cx="233.45" cy="79.9" r="13.42" transform="translate(11.88 188.48) rotate(-45)"/><circle class="cls-4" cx="161.8" cy="151.55" r="13.42" transform="translate(-59.77 158.8) rotate(-45)"/><path class="cls-3" d="M233.45,96.58a16.69,16.69,0,1,1,11.8-28.48h0A16.68,16.68,0,0,1,233.45,96.58Zm0-26.82a10.14,10.14,0,1,0,7.17,3h0A10.07,10.07,0,0,0,233.45,69.76Z"/><path class="cls-3" d="M246.86,131.73a3.27,3.27,0,0,1-.87-6.43,47.13,47.13,0,0,0,34-38.57,3.27,3.27,0,0,1,6.48.94,53.68,53.68,0,0,1-38.79,43.94A3.28,3.28,0,0,1,246.86,131.73Z"/><path class="cls-3" d="M264.86,142.64a3.28,3.28,0,0,1-1.53-6.17,64.26,64.26,0,0,0,29.21-32.06,3.27,3.27,0,0,1,6.05,2.51,70.81,70.81,0,0,1-32.2,35.35A3.26,3.26,0,0,1,264.86,142.64Z"/><path class="cls-3" d="M161.8,168.23a16.69,16.69,0,1,1,11.8-28.48h0A16.68,16.68,0,0,1,161.8,168.23Zm0-26.82a10.14,10.14,0,1,0,7.17,3A10.07,10.07,0,0,0,161.8,141.41Z"/></svg>