<?xml version="1.0" ?><svg data-name="Layer 1" id="Layer_1" viewBox="0 0 128 128" xmlns="http://www.w3.org/2000/svg"><defs><style>.cls-1{fill:#3d5a98;}.cls-2{fill:#fff;}</style></defs><title/><circle class="cls-1" cx="64" cy="64" r="64"/><path class="cls-2" d="M92.47,32H35.53A3.53,3.53,0,0,0,32,35.53V92.47A3.53,3.53,0,0,0,35.53,96H66V70H58V62h8V54c0-8.27,5.23-12.33,12.61-12.33A71.64,71.64,0,0,1,86,42v8H81a4.83,4.83,0,0,0-5,5v7H86l-1,8H76V96H92.47A3.53,3.53,0,0,0,96,92.47V35.53A3.53,3.53,0,0,0,92.47,32Z"/></svg>